Les aventuriers (1967)


user comments:
  http://www.imdb.com/title/tt0061376/usercomments


Robert Enrico's second masterpiece. 

cast: Alain Delon, Lino Ventura...



Two adventurers and best friends, Roland and Manu, 

are the victims of a practical joke that costs Manu his pilot's license...

  http://www.imdb.com/title/tt0061376/plotsummary 


screen shots:
 
http://i.imagehost.org/0587/Les_aventuriers_1967_mkv1.jpg
 
http://f.imagehost.org/0967/Les_aventuriers_1967_mkv2.jpg
 
http://f.imagehost.org/0719/Les_aventuriers_1967_mkv3.jpg

FRANCAIS:

Roland, Manu et Laétitia, trois vieux amis, partent à l'aventure dans les 

mers du Sud au large du Congo.

 Des informations semblent supposées qu'il existe un avion accidenté, a 

coulé avec une cargaison de diamants.

 Mais des mercenaires sont déjà sur leurs traces.


Format                           : Matroska (mkv)
File size                        : 2.26 GiB
Duration                         : 1h 48mn
Overall bit rate                 : 2 996 Kbps

Video
Format/Info                      : AVC (Advanced Video Codec) 
Codec ID                         : V_MPEG4/ISO/AVC
Nominal bit rate                 : 2 800 Kbps
Width                            : 720 pixels
Height                           : 436 pixels
Display aspect ratio             : 2.35:1
Frame rate                       : 25.000 fps
Stream size                      : 2.07 GiB 
Writing library                  : x264 core 79

Audio ( French )
Format/Info                      : Audio Coding 3 (AC3)
Bit rate mode                    : Constant
Bit rate                         : 192 Kbps
Channel(s)                       : 2 channels, 48 kHz
Stream size                      : 149 MiB 

Audio: Francais

Subtitles: English, Spanish, Portuguese, Czech, Romanian

